<?xml version="1.0" encoding="iso-8859-1"?>
<!-- Generator: Adobe Illustrator 19.0.0, SVG Export Plug-In . SVG Version: 6.00 Build 0)  -->
<svg version="1.1" id="Capa_1" xmlns="http://www.w3.org/2000/svg" xmlns:xlink="http://www.w3.org/1999/xlink" x="0px" y="0px"
	 viewBox="0 0 318.4 318.4" style="enable-background:new 0 0 318.4 318.4;" xml:space="preserve">
<path style="fill:#EDEEEF;" d="M67.6,214.2v75.2c0,0,32.8,14,91.6,14c56.8,0,91.6-14,91.6-14v-75.2c34.4,0,62.4-28,62.4-62.4
	s-28-62.4-62.4-62.4c-6.8,0-13.6,1.2-19.6,3.2c0-1.2,0-2,0-3.2c0-40.8-32.8-74-73.6-74C117.2,15.4,84,48.2,84,89c0,0.8,0,1.6,0,2.4
	C78.8,89.8,73.2,89,67.2,89c-34.4,0-62.4,28-62.4,62.4C5.2,186.2,33.2,214.2,67.6,214.2z"/>
<path style="fill:#FFFFFF;" d="M67.6,250.6v38.8c0,0,32.8,14,91.6,14c56.8,0,91.6-14,91.6-14V249C172.8,277.4,96.4,259.4,67.6,250.6
	z"/>
<path style="fill:#303C49;" d="M250.8,83.8c-4.8,0-9.6,0.4-14.4,1.6c-2-41.6-36.4-75.2-78.8-75.2c-42,0-76.4,33.2-78.4,74.8
	c-4-0.8-7.6-1.2-11.6-1.2C30.4,83.8,0,114.2,0,151.4C0,187,27.6,216.2,62.4,219v70c0,2,1.2,4,3.2,4.8c1.2,0.4,34.4,14.4,93.6,14.4
	c57.2,0,92-14,93.6-14.4c2-0.8,3.2-2.8,3.2-4.8v-37.6l0,0V219c34.8-2.8,62.4-32,62.4-67.6C318.4,114.2,288,83.8,250.8,83.8z
	 M159.2,298.2c-46.8,0-76.8-9.2-86.4-12.4v-26.4c12.8,4,42.4,12,86.4,12c42.8,0,73.2-8,86.4-12v26.4
	C236,289,204.8,298.2,159.2,298.2z M250.8,209c-2.8,0-5.2,2.4-5.2,5.2v34c-9.6,3.2-40.8,12.4-86.4,12.4c-46.8,0-77.2-9.2-86.4-12.4
	v-34c0-2.8-2.4-5.2-5.2-5.2c-31.6,0-57.2-25.6-57.2-57.2S36,94.6,67.6,94.6c5.2,0,10,0.8,15.2,2c1.6,0.4,3.2,0,4.4-0.8
	c1.2-1.2,2-2.4,2-4.4v-1.2c0-0.4,0-0.8,0-0.8C89.2,51.8,120,21,157.6,21S226,51.8,226,89.4c0,0.4,0,1.2,0,1.6v1.2
	c0,1.6,0.8,3.2,2,4.4s3.2,1.2,4.8,0.8c6-2,12-2.8,18-2.8c31.6,0,57.2,25.6,57.2,57.2S282.4,209,250.8,209z"/>
<g>
</g>
<g>
</g>
<g>
</g>
<g>
</g>
<g>
</g>
<g>
</g>
<g>
</g>
<g>
</g>
<g>
</g>
<g>
</g>
<g>
</g>
<g>
</g>
<g>
</g>
<g>
</g>
<g>
</g>
</svg>
